<?xml version="1.0" encoding="UTF-8" standalone="no"?>
<svg width="180px" height="54px" viewBox="0 0 180 54" version="1.1" xmlns="http://www.w3.org/2000/svg" xmlns:xlink="http://www.w3.org/1999/xlink">
    <!-- Generator: Sketch 3.6.1 (26313) - http://www.bohemiancoding.com/sketch -->
    <title>countly_logo_vector</title>
    <desc>Created with Sketch.</desc>
    <defs></defs>
    <g id="Page-1" stroke="none" stroke-width="1" fill="none" fill-rule="evenodd">
        <g id="countly_logo_vector">
            <g id="Group">
                <g transform="translate(62.470588, 6.352941)" id="Shape" fill="#353535">
                    <path d="M20.3667353,23.4508235 C18.2382353,28.8322941 12.5753824,30.9210882 8.92085294,30.9210882 C2.97714706,30.9210882 0.125735294,28.2703235 0.125735294,21.0417353 C0.125735294,13.7726471 3.61958824,0.158029412 14.1416471,0.158029412 C17.9168824,0.158029412 20.8485,1.64382353 20.8485,5.5395 C20.8485,7.668 20.0853529,9.23426471 18.0370588,9.23426471 C17.3946176,9.23426471 16.5110294,9.07358824 15.7478824,8.19026471 C16.7116765,7.70823529 17.5952647,6.02152941 17.5952647,4.4955 C17.5952647,3.21035294 16.9528235,2.04564706 15.1454118,2.04564706 C10.7277353,2.04564706 6.79208824,12.6076765 6.79208824,20.8003235 C6.79208824,24.4953529 7.75588235,27.0653824 11.6113235,27.0653824 C14.7438529,27.0653824 17.5952647,25.5396176 19.4426471,23.0497941 L20.3667353,23.4508235 L20.3667353,23.4508235 Z"></path>
                    <path d="M34.9043824,16.2622059 C35.0650588,16.3426765 35.2254706,16.3426765 35.3459118,16.3426765 C37.1935588,16.3426765 39.8040882,15.1377353 41.5307647,13.9327941 L41.8920882,15.0172941 C40.3657941,16.6637647 37.7158235,17.8684412 34.7836765,18.3507353 C34.1409706,25.7805 30.1248529,30.4390588 25.1846471,30.4390588 C21.4501765,30.4390588 18.7594412,28.6718824 18.7594412,24.0932647 C18.7594412,19.4749412 21.4901471,9.83620588 29.7635294,9.83620588 C33.2174118,9.83647059 34.9043824,12.0451765 34.9043824,16.2622059 L34.9043824,16.2622059 Z M31.4507647,18.4711765 C30.6068824,18.2702647 30.366,17.5875882 30.366,16.7842059 C30.366,15.6597353 30.8882647,14.9368235 31.6109118,14.6157353 C31.5307059,12.9290294 31.1291471,12.2863235 30.0846176,12.2863235 C27.2332059,12.2863235 24.7433824,19.6358824 24.7433824,23.5712647 C24.7433824,26.2220294 25.2653824,26.8242353 26.7914118,26.8242353 C28.7597647,26.8242353 30.8083235,23.2099412 31.4507647,18.4711765 L31.4507647,18.4711765 Z"></path>
                    <path d="M55.386,10.1980588 L52.4943529,23.8523824 C52.3739118,24.3746471 52.3336765,24.7762059 52.3336765,25.1375294 C52.3336765,26.262 52.8559412,26.6233235 53.9804118,26.6233235 C55.5464118,26.6233235 56.6311765,25.0970294 57.2333824,23.0889706 L58.9203529,23.0889706 C56.6311765,29.6351471 53.0166176,30.5187353 50.8478824,30.5187353 C48.5587059,30.5187353 47.1131471,29.1936176 46.872,26.7032647 C44.8639412,29.9964706 42.615,30.5187353 40.9280294,30.5187353 C38.5181471,30.5187353 36.6307941,29.0726471 36.6307941,25.6992353 C36.6307941,24.9360882 36.7512353,24.0530294 36.9524118,23.0889706 L39.6831176,10.1975294 L45.4664118,10.1975294 L42.5747647,23.8518529 C42.4945588,24.2536765 42.4543235,24.615 42.4543235,24.9763235 C42.4543235,25.9001471 42.7754118,26.6230588 43.659,26.6230588 C45.2255294,26.6230588 46.2692647,25.0967647 46.8722647,23.0887059 L49.6029706,10.1972647 L55.386,10.1972647 L55.386,10.1980588 Z"></path>
                    <path d="M67.3530882,13.6919118 C65.907,13.6919118 64.8227647,15.3786176 64.2205588,17.3866765 L61.4893235,30.2783824 L55.7060294,30.2783824 L59.9630294,10.1980588 L65.7463235,10.1980588 L65.3047941,12.2863235 C66.9912353,10.3587353 68.7584118,10.0373824 70.0033235,10.0373824 C72.5738824,10.0373824 74.4615,11.3627647 74.4615,14.5757647 C74.4615,17.8287353 72.5336471,22.6879412 72.5336471,24.9368824 C72.5336471,25.9409118 72.9354706,26.6238529 74.1398824,26.6238529 C75.9070588,26.6238529 76.6302353,25.1782941 77.5132941,23.0895 L79.2002647,23.0895 C76.9513235,29.6761765 73.8590294,30.5192647 71.7305294,30.5192647 C68.2361471,30.5192647 66.9912353,28.2703235 66.9912353,25.9808824 C66.9912353,23.2501765 68.7986471,18.3102353 68.7986471,15.7399412 C68.7986471,14.4148235 68.3168824,13.6919118 67.3530882,13.6919118 L67.3530882,13.6919118 Z"></path>
                    <path d="M87.3921176,3.85252941 L86.0267647,10.1980588 L88.4366471,10.1980588 L88.1150294,11.8042941 L85.7051471,11.8042941 L83.1351176,23.8523824 C83.0146765,24.3746471 82.9744412,24.7762059 82.9744412,25.1375294 C82.9744412,26.262 83.4967059,26.6233235 84.6211765,26.6233235 C86.1877059,26.6233235 87.6332647,25.0970294 88.2354706,23.0889706 L89.9224412,23.0889706 C87.6332647,29.6351471 83.6573824,30.5187353 81.4886471,30.5187353 C79.0787647,30.5187353 77.1914118,29.0726471 77.1914118,25.6992353 C77.1914118,24.9360882 77.3118529,24.0530294 77.5130294,23.0889706 L79.9229118,11.8040294 L78.5972647,11.8040294 L78.9188824,10.1977941 L80.244,10.1977941 L81.4486765,4.65538235 L87.3921176,3.85252941 L87.3921176,3.85252941 Z"></path>
                    <path d="M98.4761471,2.16582353 L93.8578235,23.8523824 C93.7373824,24.3746471 93.6971471,24.7762059 93.6971471,25.1375294 C93.6971471,26.262 94.2194118,26.6233235 95.3438824,26.6233235 C96.9104118,26.6233235 98.3559706,25.0970294 98.9581765,23.0889706 L100.645147,23.0889706 C98.3559706,29.6351471 94.3800882,30.5187353 92.2113529,30.5187353 C89.8014706,30.5187353 87.9141176,29.0726471 87.9141176,25.6992353 C87.9141176,24.9360882 88.0345588,24.0530294 88.2357353,23.0889706 L92.5324412,2.96867647 L98.4761471,2.16582353 L98.4761471,2.16582353 Z"></path>
                    <path d="M107.472176,10.1980588 L104.580529,23.8523824 C104.500324,24.174 104.460088,24.5353235 104.460088,24.8564118 C104.460088,25.7802353 104.741206,26.6235882 105.664765,26.6235882 C107.231294,26.6235882 108.275029,25.0972941 108.878029,23.0892353 L111.608735,10.1977941 L117.431735,10.1977941 L112.532029,33.4908529 C111.327353,39.2336471 107.873735,40.3184118 105.223235,40.3184118 C102.773118,40.3184118 100.484471,38.5917353 100.484471,35.9806765 C100.484471,32.2459412 103.617,31.0809706 107.431941,29.9565 L107.833765,28.1898529 C106.107088,30.1576765 104.299412,30.519 102.934059,30.519 C100.524176,30.519 98.6368235,29.0729118 98.6368235,25.6995 C98.6368235,24.9363529 98.7572647,24.0532941 98.9584412,23.0892353 L101.689147,10.1977941 L107.472176,10.1977941 L107.472176,10.1980588 Z M104.299412,36.7440882 C105.102794,36.7440882 106.146794,35.9809412 106.668794,33.6115588 L107.150559,31.2421765 C104.620765,32.0855294 102.692912,33.2502353 102.692912,35.4189706 C102.692912,35.9809412 103.415824,36.7440882 104.299412,36.7440882 L104.299412,36.7440882 Z"></path>
                </g>
                <path d="M42.4508824,53.0616176 C48.2987647,53.0616176 53.0391176,48.3212647 53.0391176,42.4733824 L53.0391176,10.7086765 C53.0391176,4.86079412 48.2987647,0.120441176 42.4508824,0.120441176 L10.6861765,0.120441176 C4.83855882,0.120441176 0.0979411765,4.86079412 0.0979411765,10.7086765 L0.0979411765,42.4733824 C0.0979411765,48.3212647 4.83855882,53.0616176 10.6861765,53.0616176 L42.4508824,53.0616176 Z M21.9615882,3.07905882 L31.176,3.07905882 C31.6850294,3.07905882 32.0974412,3.49173529 32.0974412,4.0005 C32.0974412,4.50952941 31.6847647,4.92194118 31.176,4.92194118 L21.9615882,4.92194118 C21.4525588,4.92194118 21.0401471,4.50926471 21.0401471,4.0005 C21.0398824,3.49147059 21.4525588,3.07905882 21.9615882,3.07905882 L21.9615882,3.07905882 Z M26.5685294,50.7578824 C25.0803529,50.7578824 23.8738235,49.5510882 23.8738235,48.0631765 C23.8738235,46.5747353 25.0803529,45.3679412 26.5685294,45.3679412 C28.0569706,45.3679412 29.2635,46.5747353 29.2635,48.0631765 C29.2635,49.5510882 28.0569706,50.7578824 26.5685294,50.7578824 L26.5685294,50.7578824 Z M46.4214706,7.91735294 C47.8834412,7.91735294 49.0685294,9.10244118 49.0685294,10.5644118 L49.0685294,41.2702941 C49.0685294,42.7322647 47.8834412,43.9173529 46.4214706,43.9173529 L6.71558824,43.9173529 C5.25388235,43.9173529 4.06852941,42.7322647 4.06852941,41.2702941 L4.06852941,10.5644118 C4.06852941,9.10244118 5.25388235,7.91735294 6.71558824,7.91735294 L46.4214706,7.91735294 Z" id="Shape" fill="#2FA732"></path>
                <g transform="translate(9.000000, 8.735294)" id="Shape" fill="#353535">
                    <path d="M8.56747059,8.694 L4.32344118,8.694 C3.89408824,9.21838235 3.49676471,9.64402941 3.13120588,9.96961765 C2.76538235,10.2954706 2.41967647,10.5654706 2.09408824,10.7801471 C1.76823529,10.9948235 1.44635294,11.1817059 1.12844118,11.3405294 C0.810264706,11.4996176 0.484676471,11.6587059 0.150882353,11.8172647 L1.24755882,14.4637941 L3.63176471,13.3432941 L3.63176471,22.1892353 L1.24755882,22.1892353 L1.24755882,25.3601471 L10.7846471,25.3601471 L10.7846471,22.1892353 L8.56720588,22.1892353 L8.56720588,8.694 L8.56747059,8.694 Z"></path>
                    <path d="M18.1842353,16.4157353 L18.1842353,0.0481764706 L16.9530882,0.0481764706 L16.9530882,34.3265294 L18.1842353,34.3265294 L18.1842353,17.6471471 L38.7569118,17.6471471 L38.7569118,16.4157353 L18.1842353,16.4157353 Z"></path>
                    <path d="M35.5714412,5.69594118 L31.5659118,5.69594118 L31.5659118,7.60341176 L27.3695294,7.60341176 C27.5124706,7.36491176 27.7229118,7.09888235 28.0013824,6.80452941 C28.2793235,6.51070588 28.5892941,6.21661765 28.9312941,5.92226471 C29.2730294,5.62844118 29.6227059,5.34997059 29.9803235,5.08764706 C30.3379412,4.82532353 30.6598235,4.599 30.9459706,4.40814706 C31.5815294,3.99494118 32.1379412,3.6135 32.6149412,3.26355882 C33.0916765,2.91414706 33.4887353,2.54461765 33.8069118,2.15497059 C34.1248235,1.76558824 34.8924706,0.795176471 35.0515588,0.302294118 L29.9800588,0.318970588 C29.7018529,0.644823529 29.3519118,0.962735294 28.9310294,1.27270588 C28.5096176,1.58267647 28.0527353,1.89661765 27.5601176,2.21452941 C27.0672353,2.53270588 26.6063824,2.88211765 26.1772941,3.26355882 C25.7958529,3.56585294 25.4620588,3.84776471 25.1759118,4.11008824 C24.8897647,4.37241176 24.6155294,4.65061765 24.3534706,4.94444118 C24.0911471,5.23879412 23.8327941,5.57258824 23.5786765,5.94582353 C23.3242941,6.31958824 23.0302059,6.77673529 22.6964118,7.31673529 L22.6964118,10.7740588 L35.5714412,10.7740588 L35.5714412,5.69594118 L35.5714412,5.69594118 Z"></path>
                    <path d="M34.3911176,32.0376176 C34.1605588,31.7197059 33.9178235,31.4497059 33.6637059,31.2270882 C33.4093235,31.0047353 33.1869706,30.8218235 32.9961176,30.6786176 C33.1549412,30.5674412 33.3336176,30.4205294 33.5326765,30.2376176 C33.7312059,30.0552353 33.9220588,29.8405588 34.1049706,29.5938529 C34.2873529,29.3476765 34.4424706,29.0655 34.5697941,28.7475882 C34.6968529,28.4296765 34.7606471,28.0641176 34.7606471,27.6503824 C34.7606471,26.8877647 34.6253824,26.1960882 34.3553824,25.5761471 C34.0848529,24.9562059 33.6915,24.4236176 33.1753235,23.9786471 C32.6586176,23.5339412 32.0227941,23.1916765 31.2678529,22.9534412 C30.5126471,22.7152059 29.6502353,22.5955588 28.6811471,22.5955588 C28.1406176,22.5955588 27.6117353,22.6715294 27.0955588,22.8224118 C26.5788529,22.9732941 26.0941765,23.1599118 25.6412647,23.3822647 C25.1883529,23.6051471 24.7828235,23.8476176 24.4252059,24.1096765 C24.0675882,24.3717353 23.7851471,24.6221471 23.5786765,24.8609118 L25.8914118,27.6501176 C26.3046176,27.2054118 26.7575294,26.8554706 27.2504118,26.6010882 C27.7430294,26.3472353 28.2197647,26.2196471 28.6811471,26.2196471 C28.935,26.2196471 29.1854118,26.2593529 29.4321176,26.3390294 C29.6785588,26.4187059 29.9009118,26.5338529 30.0997059,26.685 C30.2982353,26.8358824 30.4610294,27.0304412 30.5886176,27.2686765 C30.7156765,27.5074412 30.7794706,27.7856471 30.7794706,28.1035588 C30.7794706,28.6438235 30.5846471,29.0533235 30.1952647,29.3315294 C29.8056176,29.6097353 29.3249118,29.7487059 28.7528824,29.7487059 L27.0124412,29.7487059 L27.0124412,32.5860882 L28.8005294,32.5860882 C29.4043235,32.5860882 29.8852941,32.7131471 30.2429118,32.967 C30.6005294,33.2219118 30.7794706,33.4101176 30.7794706,34.0615588 L35.2140882,34.0589118 C35.2140882,33.5191765 35.1344118,33.5673529 34.9755882,33.1459412 C34.8162353,32.7253235 34.6214118,32.3555294 34.3911176,32.0376176 L34.3911176,32.0376176 Z"></path>
                </g>
            </g>
        </g>
    </g>
</svg>