<?xml version="1.0" encoding="UTF-8" standalone="no"?>
<svg
   xmlns:dc="http://purl.org/dc/elements/1.1/"
   xmlns:cc="http://creativecommons.org/ns#"
   xmlns:rdf="http://www.w3.org/1999/02/22-rdf-syntax-ns#"
   xmlns:svg="http://www.w3.org/2000/svg"
   xmlns="http://www.w3.org/2000/svg"
   xmlns:sodipodi="http://sodipodi.sourceforge.net/DTD/sodipodi-0.dtd"
   xmlns:inkscape="http://www.inkscape.org/namespaces/inkscape"
   width="2100"
   height="500.20001"
   viewBox="40.3 -0.1 1565.2737 500.2"
   id="svg2"
   version="1.1"
   inkscape:version="0.91 r13725"
   sodipodi:docname="gdg-logo.svg">
  <metadata
     id="metadata20">
    <rdf:RDF>
      <cc:Work
         rdf:about="">
        <dc:format>image/svg+xml</dc:format>
        <dc:type
           rdf:resource="http://purl.org/dc/dcmitype/StillImage" />
        <dc:title></dc:title>
      </cc:Work>
    </rdf:RDF>
  </metadata>
  <defs
     id="defs18" />
  <sodipodi:namedview
     pagecolor="#ffffff"
     bordercolor="#666666"
     borderopacity="1"
     objecttolerance="10"
     gridtolerance="10"
     guidetolerance="10"
     inkscape:pageopacity="0"
     inkscape:pageshadow="2"
     inkscape:window-width="1920"
     inkscape:window-height="1057"
     id="namedview16"
     showgrid="false"
     inkscape:zoom="0.54723136"
     inkscape:cx="920.42969"
     inkscape:cy="-116.27463"
     inkscape:window-x="-8"
     inkscape:window-y="-8"
     inkscape:window-maximized="1"
     inkscape:current-layer="svg2" />
  <g
     id="g4"
     style="fill:#757575"
     transform="translate(-197.42854,0)">
    <path
       d="M 304.2,316.1 106.7,0 52.2,0 C 41.3,0 37.1,7.6 42.8,16.8 l 132.6,216.4 0.7,1.1 89.8,143.8 38.3,-62 z m 30.5,-49.3 c 5.7,-9.2 5.7,-24.3 0,-33.6 L 200.7,16.7 C 195,7.5 181.4,-0.1 170.6,-0.1 l -55,0 193,308.9 26.1,-42 z M 222.5,323 111.9,500 l 58.8,0 c 10.8,0 24.4,-7.5 30.1,-16.8 l 53.5,-86.5 c 0.2,-0.3 0.6,-1 1.5,-2.4 l 5.6,-9.1 L 222.5,323 Z M 175.4,266.8 42.8,483.3 c -5.7,9.3 -1.4,16.8 9.4,16.8 l 50.7,0 L 218,315.9 179.4,254 c -0.5,4.8 -1.8,9.3 -4,12.8 z"
       id="path6"
       inkscape:connector-curvature="0" />
  </g>
  <g
     id="g8"
     transform="translate(-197.42854,5.39742)"
     style="fill:#757575">
    <path
       d="m 509,241.7 77.1,0 0,96.3 c -20.9,7.2 -44,10.8 -69.1,10.8 -27.5,0 -48.8,-8 -63.9,-24 -15,-16 -22.6,-38.7 -22.6,-68.3 0,-28.8 8.2,-51.3 24.7,-67.4 16.5,-16.1 39.5,-24.1 69.2,-24.1 11.2,0 21.9,1.1 31.8,3.2 10,2.1 18.7,4.8 26.1,8.1 L 567,214.2 c -12.9,-6.4 -27,-9.5 -42.4,-9.5 -14.1,0 -25,4.6 -32.7,13.8 -7.7,9.2 -11.6,22.3 -11.6,39.3 0,16.7 3.5,29.4 10.5,38.2 7,8.8 17,13.1 30.1,13.1 7.2,0 13.8,-0.7 19.8,-2.1 l 0,-28 -31.7,0 0,-37.3 z m 250.4,11.5 c 0,29.8 -8.2,52.8 -24.6,68.9 -16.4,16.1 -39.5,24.2 -69.2,24.2 l -57.8,0 0,-178.7 61.8,0 c 28.7,0 50.8,7.3 66.4,22 15.6,14.7 23.4,35.9 23.4,63.6 z m -50.1,1.7 c 0,-16.4 -3.2,-28.5 -9.7,-36.4 -6.5,-7.9 -16.3,-11.9 -29.5,-11.9 l -14.1,0 0,100.1 10.8,0 c 14.7,0 25.4,-4.3 32.3,-12.8 6.8,-8.5 10.2,-21.5 10.2,-39 z m 139.2,-13.2 77.1,0 0,96.3 c -20.9,7.2 -44,10.8 -69.1,10.8 -27.5,0 -48.8,-8 -63.9,-24 -15,-16 -22.6,-38.7 -22.6,-68.3 0,-28.8 8.2,-51.3 24.7,-67.4 16.5,-16.1 39.5,-24.1 69.2,-24.1 11.2,0 21.9,1.1 31.8,3.2 10,2.1 18.7,4.8 26.1,8.1 l -15.3,37.9 c -12.9,-6.4 -27,-9.5 -42.4,-9.5 -14.1,0 -25,4.6 -32.7,13.8 -7.7,9.2 -11.6,22.3 -11.6,39.3 0,16.7 3.5,29.4 10.5,38.2 7,8.8 17,13.1 30.1,13.1 7.2,0 13.8,-0.7 19.8,-2.1 l 0,-28 -31.9,0 0,-37.3 0.2,0 z"
       id="path10"
       inkscape:connector-curvature="0"
       style="fill:#757575;fill-opacity:1" />
  </g>
  <g
     style="font-style:normal;font-variant:normal;font-weight:bold;font-stretch:normal;font-size:255px;line-height:125%;font-family:'Open Sans';-inkscape-font-specification:'Open Sans Bold';letter-spacing:0px;word-spacing:0px;fill:#757575;fill-opacity:1;stroke:none;stroke-width:1px;stroke-linecap:butt;stroke-linejoin:miter;stroke-opacity:1"
     id="text3353">
    <path
       d="m 812.80402,351.70718 0,-182.03613 38.59863,0 0,182.03613 -38.59863,0 z"
       style="font-style:normal;font-variant:normal;font-weight:bold;font-stretch:normal;font-size:255px;font-family:'Open Sans';-inkscape-font-specification:'Open Sans Bold';fill:#757575;fill-opacity:1"
       id="path4161"
       inkscape:connector-curvature="0" />
    <path
       d="m 991.60284,310.36929 q 0,21.41602 -14.9414,32.62207 -14.8169,11.20606 -44.45069,11.20606 -15.19043,0 -25.89843,-2.1167 -10.70801,-1.99219 -20.04639,-5.97656 l 0,-31.37696 q 10.5835,4.98047 23.78174,8.34229 13.32275,3.36181 23.4082,3.36181 20.66895,0 20.66895,-11.95312 0,-4.48242 -2.73926,-7.22168 -2.73926,-2.86377 -9.46289,-6.3501 -6.72363,-3.61084 -17.92969,-8.34228 -16.06201,-6.72364 -23.65723,-12.45117 -7.4707,-5.72754 -10.95703,-13.07373 -3.36181,-7.47071 -3.36181,-18.30323 0,-18.55224 14.31884,-28.63769 14.44336,-10.20996 40.83985,-10.20996 25.15137,0 48.9331,10.95703 l -11.45507,27.39258 q -10.45899,-4.48243 -19.54834,-7.3462 -9.08936,-2.86377 -18.55225,-2.86377 -16.80908,0 -16.80908,9.08936 0,5.10498 5.354,8.84033 5.47852,3.73535 23.78174,11.08155 16.31103,6.59912 23.90625,12.32666 7.59521,5.72753 11.20605,13.19824 3.61084,7.4707 3.61084,17.80517 z"
       style="font-style:normal;font-variant:normal;font-weight:bold;font-stretch:normal;font-size:255px;font-family:'Open Sans';-inkscape-font-specification:'Open Sans Bold';fill:#757575;fill-opacity:1"
       id="path4163"
       inkscape:connector-curvature="0" />
    <path
       d="m 1080.1307,323.94107 q 9.9609,0 23.9062,-4.35791 l 0,28.26416 q -14.1943,6.3501 -34.8633,6.3501 -22.7856,0 -33.2446,-11.45508 -10.3345,-11.57959 -10.3345,-34.61426 l 0,-67.11181 -18.1787,0 0,-16.06202 20.918,-12.70019 10.957,-29.38477 24.2798,0 0,29.63379 38.9722,0 0,28.51319 -38.9722,0 0,67.11181 q 0,8.09326 4.4824,11.95313 4.607,3.85986 12.0777,3.85986 z"
       style="font-style:normal;font-variant:normal;font-weight:bold;font-stretch:normal;font-size:255px;font-family:'Open Sans';-inkscape-font-specification:'Open Sans Bold';fill:#757575;fill-opacity:1"
       id="path4165"
       inkscape:connector-curvature="0" />
    <path
       d="m 1220.4554,351.70718 -7.3462,-18.92578 -0.9961,0 q -9.5874,12.07764 -19.7974,16.80908 -10.0854,4.60694 -26.3964,4.60694 -20.0464,0 -31.626,-11.45508 -11.4551,-11.45508 -11.4551,-32.62207 0,-22.16309 15.4394,-32.62207 15.564,-10.5835 46.8165,-11.7041 l 24.1552,-0.74707 0,-6.10108 q 0,-21.16699 -21.665,-21.16699 -16.6846,0 -39.2212,10.08545 L 1135.7874,222.215 q 24.0308,-12.57569 53.291,-12.57569 28.0152,0 42.9566,12.20215 14.9414,12.20215 14.9414,37.10449 l 0,92.76123 -26.521,0 z m -11.2061,-64.49707 -14.6924,0.49805 q -16.56,0.49805 -24.6533,5.97656 -8.0932,5.47852 -8.0932,16.68457 0,16.06201 18.4277,16.06201 13.1982,0 21.0425,-7.59521 7.9687,-7.59521 7.9687,-20.1709 l 0,-11.45508 z"
       style="font-style:normal;font-variant:normal;font-weight:bold;font-stretch:normal;font-size:255px;font-family:'Open Sans';-inkscape-font-specification:'Open Sans Bold';fill:#757575;fill-opacity:1"
       id="path4167"
       inkscape:connector-curvature="0" />
    <path
       d="m 1414.4446,351.70718 -37.976,0 0,-81.30615 q 0,-15.06592 -5.354,-22.53662 -5.354,-7.59521 -17.0581,-7.59521 -15.9375,0 -23.0347,10.708 -7.0972,10.5835 -7.0972,35.23682 l 0,65.49316 -37.9761,0 0,-139.2041 29.0113,0 5.105,17.80518 2.1167,0 q 6.3501,-10.08545 17.4316,-15.19043 11.2061,-5.22949 25.4004,-5.22949 24.2798,0 36.8555,13.19824 12.5756,13.07373 12.5756,37.85156 l 0,90.76904 z"
       style="font-style:normal;font-variant:normal;font-weight:bold;font-stretch:normal;font-size:255px;font-family:'Open Sans';-inkscape-font-specification:'Open Sans Bold';fill:#757575;fill-opacity:1"
       id="path4169"
       inkscape:connector-curvature="0" />
    <path
       d="m 1531.2366,209.88834 q 24.6534,0 38.5987,19.29931 13.9453,19.17481 13.9453,52.66846 0,34.48975 -14.4434,53.41553 -14.3188,18.92578 -39.0967,18.92578 -24.5288,0 -38.4741,-17.80518 l -2.6147,0 -6.3501,15.31494 -29.0113,0 0,-193.74023 37.9761,0 0,45.07324 q 0,8.59131 -1.4941,27.51709 l 1.4941,0 q 13.3228,-20.66894 39.4702,-20.66894 z m -12.2021,30.38086 q -14.0698,0 -20.5444,8.71582 -6.4747,8.5913 -6.7237,28.51318 l 0,4.10889 q 0,22.41211 6.5991,32.12402 6.7237,9.71191 21.167,9.71191 11.7041,0 18.5523,-10.708 6.9726,-10.83252 6.9726,-31.37696 0,-20.54443 -6.9726,-30.75439 -6.9727,-10.33447 -19.0503,-10.33447 z"
       style="font-style:normal;font-variant:normal;font-weight:bold;font-stretch:normal;font-size:255px;font-family:'Open Sans';-inkscape-font-specification:'Open Sans Bold';fill:#757575;fill-opacity:1"
       id="path4171"
       inkscape:connector-curvature="0" />
    <path
       d="m 1713.7708,351.70718 -5.105,-17.80517 -1.9922,0 q -6.101,9.71191 -17.3071,15.06592 -11.206,5.22949 -25.5249,5.22949 -24.5288,0 -36.98,-13.07373 -12.4511,-13.19824 -12.4511,-37.85156 l 0,-90.76905 37.976,0 0,81.30615 q 0,15.06592 5.354,22.66114 5.354,7.4707 17.0581,7.4707 15.9375,0 23.0347,-10.5835 7.0972,-10.708 7.0972,-35.36132 l 0,-65.49317 37.9761,0 0,139.2041 -29.1358,0 z"
       style="font-style:normal;font-variant:normal;font-weight:bold;font-stretch:normal;font-size:255px;font-family:'Open Sans';-inkscape-font-specification:'Open Sans Bold';fill:#757575;fill-opacity:1"
       id="path4173"
       inkscape:connector-curvature="0" />
    <path
       d="m 1820.9754,351.70718 -37.9761,0 0,-193.74023 37.9761,0 0,193.74023 z"
       style="font-style:normal;font-variant:normal;font-weight:bold;font-stretch:normal;font-size:255px;font-family:'Open Sans';-inkscape-font-specification:'Open Sans Bold';fill:#757575;fill-opacity:1"
       id="path4175"
       inkscape:connector-curvature="0" />
  </g>
</svg>
