<?xml version="1.0" encoding="utf-8"?>
<!-- Generator: Adobe Illustrator 20.0.0, SVG Export Plug-In . SVG Version: 6.00 Build 0)  -->
<svg version="1.1" baseProfile="basic" id="Layer_1"
	 xmlns="http://www.w3.org/2000/svg" xmlns:xlink="http://www.w3.org/1999/xlink" x="0px" y="0px" viewBox="0 0 105 52"
	 xml:space="preserve">
<style type="text/css">
	.st0{fill:#1A1A18;}
</style>
<g>
	<path class="st0" d="M16.9,37.8c-0.5-0.1-1-0.2-1.6-0.2c-1.7,0-3.1,0.5-4.1,1.6c-0.2,0.2-0.4,0.4-0.5,0.7c-0.7-1.1-1.7-2-3.2-2.2
		c-0.3-0.1-0.7-0.1-1.1-0.1c-1.6,0-2.9,0.5-3.9,1.4v-0.1c0-0.6-0.4-1-1-1c-0.5,0-1,0.5-1,1v11.9c0,0.6,0.4,1,1,1c0.6,0,1-0.5,1-1
		v-6.9c0-2.4,1.4-4.1,3.2-4.3c0,0,0,0,0,0c0.1,0,0.2,0,0.4,0c2.1,0,3.4,1.5,3.4,4.1l0,7.2c0,0.6,0.4,1,1,1c0.6,0,1-0.5,1-1v-7
		c0-2.7,1.6-4.3,3.6-4.3c2.1,0,3.4,1.5,3.4,4.1v7.1c0,0.6,0.4,1,1,1c0.5,0,1-0.5,1-1l0-7.6C20.4,40.3,19.1,38.3,16.9,37.8z"/>
	<path class="st0" d="M30.4,37.6c-4.1,0-7.2,3.3-7.2,7.2v0.1c0,3.9,3,7.1,7.1,7.1c4.1,0,7.2-3.3,7.2-7.2v-0.1
		C37.6,40.8,34.5,37.6,30.4,37.6z M35.5,44.8c0,2.9-2.1,5.3-5,5.3c-2.9,0-5.1-2.4-5.1-5.3v-0.1c0-2.9,2-5.3,5-5.3
		C33.3,39.4,35.5,41.8,35.5,44.8L35.5,44.8z"/>
	<path class="st0" d="M48.7,37.8c-0.6-0.2-1.2-0.2-1.9-0.2c-2,0-3.3,0.6-4.3,1.5v-0.3c0-0.6-0.5-1-1-1c-0.6,0-1,0.5-1,1v11.9
		c0,0.6,0.5,1,1,1s1-0.5,1-1v-7c0-2.6,1.7-4.3,4.1-4.3c2.4,0,3.8,1.6,3.8,4.1v7.1c0,0.6,0.5,1,1,1c0.6,0,1-0.5,1-1v-7.6
		C52.5,40.3,51.2,38.3,48.7,37.8z"/>
	<path class="st0" d="M64.4,12C64.4,12,64.4,12,64.4,12c0-6.6-5.3-11.9-11.9-11.9v0h-0.1v0c-6.6,0-11.9,5.3-11.9,11.9l0,0.1h0
		c0,6.6,5.3,11.9,11.9,11.9l0.1,0v0C59.1,23.9,64.4,18.6,64.4,12z M52.5,23.7L52.5,23.7c-0.2-6.4-5.3-11.5-11.7-11.7v0
		c6.4-0.1,11.5-5.3,11.7-11.7h0c0.1,6.4,5.3,11.5,11.7,11.7v0C57.8,12.1,52.6,17.3,52.5,23.7z"/>
	<path class="st0" d="M62.8,48c0,2.8,1.7,3.9,3.9,3.9c0.8,0,1.4-0.1,2-0.4c0.3-0.1,0.6-0.4,0.6-0.8c0-0.5-0.4-0.9-0.9-0.9
		c-0.2,0-0.5,0.2-1.2,0.2c-1.4,0-2.3-0.6-2.3-2.3v-8h3.6c0.5,0,0.9-0.4,0.9-0.9c0-0.5-0.4-0.9-0.9-0.9h-3.6l0-3.2c0-0.6-0.5-1-1-1
		c-0.6,0-1,0.5-1,1V48z"/>
	<path class="st0" d="M84.1,43.8c-1.8-0.6-3.5-1.1-3.5-2.4v-0.1c0-1.1,1-2,2.7-2c1.2,0,2.4,0.4,3.6,1.1c0.1,0.1,0.3,0.1,0.5,0.1
		c0.5,0,0.9-0.4,0.9-0.9c0-0.4-0.2-0.7-0.5-0.9c-1.3-0.7-2.9-1.2-4.4-1.2c-2.7,0-4.7,1.6-4.7,3.9v0.1c0,2.5,2.4,3.3,4.5,3.9
		c1.8,0.5,3.4,1,3.4,2.4V48c0,1.3-1.2,2.2-2.8,2.2c-1.5,0-2.9-0.5-4.4-1.5c-0.1-0.1-0.3-0.2-0.5-0.2c-0.5,0-0.9,0.4-0.9,0.9
		c0,0.3,0.2,0.6,0.4,0.7c1.5,1.1,3.5,1.7,5.3,1.7c2.7,0,4.9-1.5,4.9-4.1v-0.1C88.5,45.2,86.2,44.4,84.1,43.8z"/>
	<path class="st0" d="M104.4,44.6c0-3.6-2.3-7-6.4-7c-3.8,0-6.6,3.2-6.6,7.1v0.1c0,4.3,3.1,7.1,6.9,7.1c2.3,0,3.9-0.8,5.2-2.1
		c0.2-0.2,0.3-0.4,0.3-0.7c0-0.5-0.4-0.9-0.9-0.9c-0.2,0-0.4,0.1-0.6,0.2c-1,0.9-2.3,1.6-4,1.6c-2.4,0-4.5-1.7-4.8-4.6l9.9,0
		C103.9,45.5,104.4,45.1,104.4,44.6z M93.5,44c0.3-2.7,2.1-4.7,4.5-4.7c2.7,0,4.2,2.2,4.4,4.7H93.5z"/>
	<g>
		<path class="st0" d="M57.5,37.8c-0.6,0-1,0.5-1,1v11.9c0,0.6,0.5,1,1,1c0.6,0,1-0.5,1-1l0-11.9C58.5,38.2,58.1,37.8,57.5,37.8z"/>
		<circle class="st0" cx="57.5" cy="34.7" r="1.2"/>
	</g>
	<g>
		<path class="st0" d="M73.6,37.8c-0.6,0-1,0.5-1,1v11.9c0,0.6,0.5,1,1,1s1-0.5,1-1V38.8C74.6,38.2,74.2,37.8,73.6,37.8z"/>
		<circle class="st0" cx="73.6" cy="34.7" r="1.2"/>
	</g>
</g>
<g>
</g>
<g>
</g>
<g>
</g>
<g>
</g>
<g>
</g>
<g>
</g>
</svg>
