<?xml version="1.0" encoding="utf-8"?>
<!-- Generator: Adobe Illustrator 20.0.0, SVG Export Plug-In . SVG Version: 6.00 Build 0)  -->
<svg version="1.1" id="Layer_1" xmlns="http://www.w3.org/2000/svg" xmlns:xlink="http://www.w3.org/1999/xlink" x="0px" y="0px"
	 viewBox="0 0 121.6 59" style="enable-background:new 0 0 121.6 59;" xml:space="preserve">
<style type="text/css">
	.st0{fill:#F58220;}
	.st1{fill:#4D4F54;}
</style>
<title>Full-color-logo_DIGITAL</title>
<g>
	<path class="st0" d="M12,13.2c0-0.7,0.6-1.3,1.3-1.3h4.1c0.7,0,1.9,0.1,2.6,0.3c0,0,1.1,0.2,1.9,1.4l9.8,15.3
		c0.4,0.6,1,1.6,1.4,2.2c0,0,2,3.4,3.8,7.7c-0.9-4.7-1.2-6.8-1.2-9.6v-16c0-0.7,0.6-1.3,1.3-1.3h4.8c0.7,0,1.3,0.6,1.3,1.3v32
		c0,0.7-0.6,1.3-1.3,1.3h-4.1c-0.7,0-1.9-0.1-2.6-0.3c0,0-1.1-0.2-1.9-1.4l-9.8-15.3c-0.4-0.6-1-1.6-1.4-2.2c0,0-2-3.4-3.8-7.7
		c0.9,4.7,1.2,6.8,1.2,9.6v16.1c0,0.7-0.6,1.3-1.3,1.3h-4.8c-0.7,0-1.3-0.6-1.3-1.3V13.2z"/>
	<path class="st1" d="M47.5,30.3c0-0.7,0.6-1.3,1.3-1.3h12.5c0.7,0,1.3,0.6,1.3,1.3v3.4c0,0.7-0.6,1.3-1.3,1.3H48.9
		c-0.7,0-1.3-0.6-1.3-1.3V30.3z"/>
	<path class="st1" d="M66.7,24c0-0.7,0.6-1.3,1.3-1.3h4.8c0.7,0,1.3,0.6,1.3,1.3v21.1c0,0.7-0.6,1.3-1.3,1.3H68
		c-0.7,0-1.3-0.6-1.3-1.3V24z M74.2,14.9c0,2.1-1.7,3.7-3.7,3.7s-3.7-1.7-3.7-3.7c0-2.1,1.7-3.7,3.7-3.7S74.2,12.9,74.2,14.9"/>
	<path class="st1" d="M76.3,46.5c2.5-4.4,6.1-10.2,9.2-15l0.7-1.1c0.4-0.6,0.8-1.3,1-1.5c0.1-0.2,0.1-0.6,0-0.8
		c-0.1-0.2-0.6-0.9-1-1.5c0,0-1.8-2.6-2.7-4c-1.6-2.4-3.7-5.8-4.7-7.6l-0.7-1.1c-0.4-0.6-0.8-1.3-0.9-1.6c-0.1-0.2,0.3-0.4,1.1-0.4
		h6.9c0.7,0,1.4,0.2,1.6,0.5c0.1,0.3,0.5,1,0.9,1.6c0,0,3.4,5.3,6.3,9.5c1.4,2,5.1,6.9,5.5,7.5c0,0,3.8,5.2,5.7,8.3
		c1.3,2,2.6,3.8,3.5,5.4c0.3,0.6,0.6,1,1.1,1.9h-8.3c-0.7,0-1.6-0.5-1.9-1.2c0,0-1.2-2.3-2.7-4.9c-1.8-3.2-2.7-4.8-4.2-7.1l-0.2,0.4
		c-0.4,0.6-1,1.7-1.3,2.3c0,0-3.6,6.2-5.3,9.5c-0.3,0.5-1.1,1-1.8,1H76.3z"/>
	<path class="st1" d="M95,21.3c0,0,2.8-4.7,4.9-8.6c0.3-0.5,1.1-0.9,1.8-0.9h6.1c0.7,0,1.2,0.2,1.1,0.4c-0.1,0.2-0.6,0.9-0.9,1.6
		l-6.9,10.9l-1.5,2.4L95,21.3"/>
</g>
</svg>
